<svg xmlns="http://www.w3.org/2000/svg" version="1.1" xmlns:xlink="http://www.w3.org/1999/xlink" xmlns:svgjs="http://svgjs.dev/svgjs" width="2000" height="398" viewBox="0 0 2000 398"><g transform="matrix(1,0,0,1,-1.2121212121210192,0.32291900820507635)"><svg viewBox="0 0 396 79" data-background-color="#ffffff" preserveAspectRatio="xMidYMid meet" height="398" width="2000" xmlns="http://www.w3.org/2000/svg" xmlns:xlink="http://www.w3.org/1999/xlink"><g id="tight-bounds" transform="matrix(1,0,0,1,0.23999999999995225,-0.06409698906583117)"><svg viewBox="0 0 395.52 79.12819397813168" height="79.12819397813168" width="395.52"><g><svg viewBox="0 0 657.8894825776498 131.61813964799998" height="79.12819397813168" width="395.52"><g transform="matrix(1,0,0,1,262.3694825776498,27.81680763375219)"><svg viewBox="0 0 395.52 75.9845243804956" height="75.9845243804956" width="395.52"><g id="textblocktransform"><svg viewBox="0 0 395.52 75.9845243804956" height="75.9845243804956" width="395.52" id="textblock"><g><svg viewBox="0 0 395.52 75.9845243804956" height="75.9845243804956" width="395.52"><g transform="matrix(1,0,0,1,0,0)"><svg width="395.52" viewBox="4.05 -35.3 187.64 36.05" height="75.9845243804956" data-palette-color="#ffffff"><path d="M21-18.3Q24.55-17.65 26.73-15.75 28.9-13.85 28.9-9.95L28.9-9.95Q28.9-4.55 25.1-2.27 21.3 0 14.45 0L14.45 0 4.05 0 4.05-34.55 13.1-34.55Q27.4-34.55 27.4-25.75L27.4-25.75Q27.4-22.7 25.55-20.78 23.7-18.85 21-18.3L21-18.3ZM13.75-29.7L10.65-29.7 10.65-20.35 14.7-20.35Q17.45-20.35 19.05-21.58 20.65-22.8 20.65-25.2L20.65-25.2Q20.65-27.7 18.98-28.7 17.3-29.7 13.75-29.7L13.75-29.7ZM14.5-4.95Q18.15-4.95 20.08-6.05 22-7.15 22-10.2L22-10.2Q22-13.15 20.18-14.45 18.35-15.75 15.2-15.75L15.2-15.75 10.65-15.75 10.65-4.95 14.5-4.95ZM47.95-35.3Q52.6-35.3 56-33.2 59.4-31.1 61.22-27.05 63.05-23 63.05-17.3L63.05-17.3Q63.05-11.65 61.2-7.6 59.35-3.55 55.95-1.4 52.55 0.75 47.95 0.75L47.95 0.75Q43.3 0.75 39.9-1.35 36.5-3.45 34.65-7.5 32.8-11.55 32.8-17.25L32.8-17.25Q32.8-22.85 34.65-26.93 36.5-31 39.92-33.15 43.35-35.3 47.95-35.3L47.95-35.3ZM47.95-30.25Q43.95-30.25 41.85-27.13 39.75-24 39.75-17.25L39.75-17.25Q39.75-4.3 47.95-4.3L47.95-4.3Q51.95-4.3 54.02-7.4 56.1-10.5 56.1-17.3L56.1-17.3Q56.1-24.05 54.02-27.15 51.95-30.25 47.95-30.25L47.95-30.25ZM77.75-34.55Q85.8-34.55 90.62-30.9 95.45-27.25 95.45-17.45L95.45-17.45Q95.45-7.85 90.7-3.93 85.95 0 78.65 0L78.65 0 69.25 0 69.25-34.55 77.75-34.55ZM78.9-29.6L75.85-29.6 75.85-4.95 79.1-4.95Q83.5-4.95 86-7.68 88.5-10.4 88.5-17.45L88.5-17.45Q88.5-22.35 87.22-25.03 85.95-27.7 83.87-28.65 81.8-29.6 78.9-29.6L78.9-29.6ZM119.39-34.55L126.39-34.55 115.29-13.1 115.29 0 108.59 0 108.59-13.05 97.49-34.55 104.79-34.55 112.09-18.5 119.39-34.55ZM136.94 0L130.34 0 130.34-34.55 149.89-34.55 149.19-29.65 136.94-29.65 136.94-19.3 147.59-19.3 147.59-14.4 136.94-14.4 136.94 0ZM154.79-34.55L161.39-34.55 161.39 0 154.79 0 154.79-34.55ZM166.03-34.55L191.69-34.55 190.99-29.3 181.99-29.3 181.99 0 175.34 0 175.34-29.3 166.03-29.3 166.03-34.55Z" opacity="1" transform="matrix(1,0,0,1,0,0)" fill="#ffffff" class="undefined-text-0" data-fill-palette-color="primary" id="text-0"></path></svg></g></svg></g></svg></g></svg></g><g><svg viewBox="0 0 244.43135999999996 131.61813964799998" height="131.61813964799998" width="244.43135999999996"><g><svg xmlns="http://www.w3.org/2000/svg" xmlns:xlink="http://www.w3.org/1999/xlink" version="1.1" x="0" y="0" viewBox="5 25.769 90 48.461999999999996" enable-background="new 0 0 100 100" xml:space="preserve" height="131.61813964799998" width="244.43135999999996" class="icon-icon-0" data-fill-palette-color="accent" id="icon-0"><g fill="#ff4136" data-fill-palette-color="accent"><rect x="5" y="43.077" fill="#ff4136" width="3.462" height="13.846" data-fill-palette-color="accent"></rect><rect x="11.923" y="32.692" fill="#ff4136" width="3.462" height="34.615" data-fill-palette-color="accent"></rect><rect x="18.846" y="25.769" fill="#ff4136" width="6.924" height="48.462" data-fill-palette-color="accent"></rect><rect x="29.23" y="46.539" fill="#ff4136" width="41.539" height="6.923" data-fill-palette-color="accent"></rect><rect x="91.538" y="43.077" fill="#ff4136" width="3.462" height="13.846" data-fill-palette-color="accent"></rect><rect x="84.615" y="32.692" fill="#ff4136" width="3.462" height="34.615" data-fill-palette-color="accent"></rect><rect x="74.23" y="25.769" fill="#ff4136" width="6.924" height="48.462" data-fill-palette-color="accent"></rect></g></svg></g></svg></g></svg></g><defs></defs></svg><rect width="395.52" height="79.12819397813168" fill="none" stroke="none" visibility="hidden"></rect></g></svg></g></svg>